<?xml version="1.0" encoding="UTF-8" standalone="no"?>
<!-- Created with Inkscape (http://www.inkscape.org/) -->

<svg
   xmlns:dc="http://purl.org/dc/elements/1.1/"
   xmlns:cc="http://creativecommons.org/ns#"
   xmlns:rdf="http://www.w3.org/1999/02/22-rdf-syntax-ns#"
   xmlns:svg="http://www.w3.org/2000/svg"
   xmlns="http://www.w3.org/2000/svg"
   xmlns:sodipodi="http://sodipodi.sourceforge.net/DTD/sodipodi-0.dtd"
   xmlns:inkscape="http://www.inkscape.org/namespaces/inkscape"
   width="11.5833mm"
   height="11.5833mm"
   viewBox="0 0 74.311966 74.311966"
   version="1.1"
   id="svg10546"
   sodipodi:docname="PEG-IITDH-Logo.svg"
   inkscape:version="0.92.5 (2060ec1f9f, 2020-04-08)"
   inkscape:export-filename="/home/kabhijit/Desktop/PEG-IITDH-Logo-1.png"
   inkscape:export-xdpi="300.189"
   inkscape:export-ydpi="300.189">
  <defs
     id="defs10540" />
  <sodipodi:namedview
     id="base"
     pagecolor="#ffffff"
     bordercolor="#666666"
     borderopacity="1.0"
     inkscape:pageopacity="0.0"
     inkscape:pageshadow="2"
     inkscape:zoom="1.4580004"
     inkscape:cx="-14.964695"
     inkscape:cy="130.80289"
     inkscape:document-units="mm"
     inkscape:current-layer="layer1"
     showgrid="false"
     fit-margin-top="5"
     fit-margin-left="5"
     fit-margin-right="5"
     fit-margin-bottom="5"
     inkscape:window-width="1920"
     inkscape:window-height="1008"
     inkscape:window-x="0"
     inkscape:window-y="35"
     inkscape:window-maximized="1" />
  <metadata
     id="metadata10543">
    <rdf:RDF>
      <cc:Work
         rdf:about="">
        <dc:format>image/svg+xml</dc:format>
        <dc:type
           rdf:resource="http://purl.org/dc/dcmitype/StillImage" />
        <dc:title></dc:title>
      </cc:Work>
    </rdf:RDF>
  </metadata>
  <g
     inkscape:label="Layer 1"
     inkscape:groupmode="layer"
     id="layer1"
     transform="translate(-45.423409,-50.02839)">
    <g
       id="g423"
       transform="matrix(1.1410599,0,0,1.1410599,-94.709948,-20.29205)"
       inkscape:transform-center-x="-0.41030413"
       inkscape:transform-center-y="-22.097277"
       style="opacity:0.35"
       inkscape:export-xdpi="300.189"
       inkscape:export-ydpi="300.189">
      <path
         d="m 155.02019,104.39925 c 0,0 -13.08729,-9.038155 -24.62114,-4.00725 0,0 12.39912,-3.406099 24.62114,7.81406 12.22144,-11.220159 25.3255,-7.81406 25.3255,-7.81406 -12.91944,-5.404215 -25.3255,4.00725 -25.3255,4.00725"
         style="fill:#6c1b85;fill-opacity:1;fill-rule:nonzero;stroke:none;stroke-width:0.19292536"
         id="path3733-5-3"
         inkscape:connector-curvature="0" />
      <path
         d="m 153.58079,102.2311 c 0,0 -8.99399,-6.678879 -20.65999,-4.096379 l -3.29478,-3.918116 c 0,0 14.60426,-1.33582 23.95477,8.014495"
         style="fill:#6c1b85;fill-opacity:1;fill-rule:nonzero;stroke:none;stroke-width:0.19292536"
         id="path3737-4-3"
         inkscape:connector-curvature="0" />
      <path
         d="m 153.77333,101.67532 c 0,0 -6.44602,-8.450505 -18.39447,-8.426585 l -3.28783,-4.533167 c 0,0 14.55159,1.823337 21.6823,12.959752"
         style="fill:#6c1b85;fill-opacity:1;fill-rule:nonzero;stroke:none;stroke-width:0.19292536"
         id="path3741-1-8"
         inkscape:connector-curvature="0" />
      <path
         d="m 157.16384,102.2311 c 0,0 8.99437,-6.678879 20.65999,-4.096379 l 3.29517,-3.918116 c 0,0 -14.60465,-1.33582 -23.95516,8.014495"
         style="fill:#6c1b85;fill-opacity:1;fill-rule:nonzero;stroke:none;stroke-width:0.19292536"
         id="path3745-5-5"
         inkscape:connector-curvature="0" />
      <path
         d="m 156.9713,101.67532 c 0,0 6.44641,-8.450505 18.39466,-8.426585 l 3.28803,-4.533167 c 0,0 -14.55197,1.823337 -21.68269,12.959752"
         style="fill:#6c1b85;fill-opacity:1;fill-rule:nonzero;stroke:none;stroke-width:0.19292536"
         id="path3749-5-1"
         inkscape:connector-curvature="0" />
      <path
         d="m 166.76282,80.404458 c 0.57646,-2.29504 0.76456,-4.78648 0.5373,-7.358363 -2.57208,0.76784 -4.89703,1.92038 -6.86621,3.382173 0.53768,1.75311 0.82225,3.53169 0.8344,5.28944 1.71183,-0.70515 3.56294,-1.14309 5.49451,-1.31325"
         style="fill:#6c1b85;fill-opacity:1;fill-rule:nonzero;stroke:none;stroke-width:0.19292536"
         id="path3753-4-0"
         inkscape:connector-curvature="0" />
      <path
         d="m 158.58159,91.161165 c -0.64283,0.13022 -1.23665,0.18945 -1.75176,0.20971 0.36733,0.20064 0.79234,0.40302 1.26945,0.5809 2.32899,0.86893 4.72513,0.7771 7.1228,-0.27203 3.88629,-1.70179 7.23162,-5.022037 9.46723,-9.382917 -2.38995,-0.66617 -4.77721,-0.94167 -7.05604,-0.83093 -0.55428,1.88642 -1.36554,3.63819 -2.42103,5.19278 -2.05388,3.026607 -4.7394,4.118947 -6.63065,4.502487"
         style="fill:#6c1b85;fill-opacity:1;fill-rule:nonzero;stroke:none;stroke-width:0.19292536"
         id="path3757-9-8"
         inkscape:connector-curvature="0" />
      <path
         d="m 150.27787,76.403518 c -1.96205,-1.450033 -4.27522,-2.593883 -6.83264,-3.357293 -0.22727,2.571893 -0.0394,5.063133 0.53729,7.358373 1.91614,0.16861 3.75337,0.60057 5.45362,1.29588 0.0139,-1.76045 0.30096,-3.54173 0.84173,-5.29696"
         style="fill:#6c1b85;fill-opacity:1;fill-rule:nonzero;stroke:none;stroke-width:0.19292536"
         id="path3761-8-7"
         inkscape:connector-curvature="0" />
      <path
         d="m 145.53274,86.658718 c -1.0555,-1.55479 -1.86636,-3.30617 -2.42064,-5.19259 -2.27883,-0.11055 -4.6659,0.16476 -7.05624,0.83074 2.23581,4.36088 5.58133,7.681507 9.46742,9.382727 2.39729,1.04951 4.79381,1.14115 7.12281,0.27222 0.4771,-0.17788 0.90212,-0.38026 1.26945,-0.5809 -0.5155,-0.0203 -1.10894,-0.0793 -1.75196,-0.20971 -1.89105,-0.38354 -4.57657,-1.47588 -6.63084,-4.502487"
         style="fill:#6c1b85;fill-opacity:1;fill-rule:nonzero;stroke:none;stroke-width:0.19292536"
         id="path3765-3-6"
         inkscape:connector-curvature="0" />
      <path
         d="m 155.32559,80.012008 c 0.0162,0.0239 0.0311,0.0477 0.0469,0.0716 0.0162,-0.0239 0.0308,-0.0477 0.0475,-0.0716 1.00301,-1.4778 2.25317,-2.81593 3.70416,-3.98526 -0.80855,-2.305843 -2.08186,-4.555733 -3.77188,-6.627373 -1.68405,2.06373 -2.95407,4.30475 -3.7634,6.601723 1.46508,1.17568 2.72623,2.52211 3.73678,4.01091"
         style="fill:#6c1b85;fill-opacity:1;fill-rule:nonzero;stroke:none;stroke-width:0.19292536"
         id="path3769-8-3"
         inkscape:connector-curvature="0" />
      <path
         d="m 159.19841,87.250108 c 0.0182,2.112917 -1.67999,3.840567 -3.79291,3.858507 -2.11311,0.0181 -3.84038,-1.68 -3.85889,-3.793107 -0.0182,-2.11272 1.68038,-3.84037 3.7931,-3.85851 2.11292,-0.0181 3.84057,1.68 3.8587,3.79311"
         style="fill:#ffad4a;fill-opacity:1;fill-rule:nonzero;stroke:none;stroke-width:0.19292536"
         id="path3773-5-5"
         inkscape:connector-curvature="0" />
    </g>
    <g
       transform="matrix(0,-1.4911024,1.4911024,0,349.9223,977.96887)"
       id="g5921"
       style="display:inline"
       inkscape:export-xdpi="300.189"
       inkscape:export-ydpi="300.189">
      <path
         inkscape:connector-curvature="0"
         d="m 576.00498,-179.56306 h 11.19963"
         style="fill:none;stroke:#000000;stroke-width:0.99188358;stroke-linecap:butt;stroke-linejoin:round;stroke-miterlimit:4;stroke-dasharray:none;stroke-opacity:1"
         id="path2184-47-1"
         sodipodi:nodetypes="cc" />
      <path
         inkscape:connector-curvature="0"
         d="m 589.47244,-188.42132 v 17.71653"
         style="fill:none;stroke:#000000;stroke-width:0.99212599;stroke-linecap:round;stroke-linejoin:round;stroke-miterlimit:4;stroke-dasharray:none;stroke-opacity:1"
         id="path2186-46-49" />
      <path
         inkscape:connector-curvature="0"
         style="fill:none;stroke:#000000;stroke-width:0.99212599;stroke-linecap:round;stroke-linejoin:miter;stroke-miterlimit:4;stroke-dasharray:none;stroke-opacity:1"
         d="m 589.47244,-183.10637 c 12.40157,-8.26771 12.40157,-8.26771 12.40157,-8.26771"
         id="path7086-5-4" />
      <path
         inkscape:connector-curvature="0"
         sodipodi:nodetypes="cccc"
         id="path5429-3-0"
         style="fill:#000000;fill-opacity:1;fill-rule:evenodd;stroke:none;stroke-width:1;marker-start:none"
         d="m 595.67037,-168.19199 5.9713,0.889 -2.20304,-5.66267 z" />
      <path
         inkscape:connector-curvature="0"
         style="fill:none;stroke:#000000;stroke-width:0.99212599;stroke-linecap:round;stroke-linejoin:miter;stroke-miterlimit:4;stroke-dasharray:none;stroke-opacity:1"
         d="m 589.47244,-176.01975 c 12.40157,8.85827 12.40157,8.85827 12.40157,8.85827"
         id="path7318-9-8" />
      <path
         inkscape:connector-curvature="0"
         style="fill:none;stroke:#000000;stroke-width:0.99188358;stroke-linecap:round;stroke-linejoin:miter;stroke-miterlimit:4;stroke-dasharray:none;stroke-opacity:1"
         d="m 601.87401,-191.50015 v -8.33221"
         id="path7326-2-8"
         sodipodi:nodetypes="cc" />
      <path
         inkscape:connector-curvature="0"
         d="m 586.87383,-188.42132 v 17.71653"
         style="display:inline;fill:none;stroke:#000000;stroke-width:0.99212599;stroke-linecap:round;stroke-linejoin:round;stroke-miterlimit:4;stroke-dasharray:none;stroke-opacity:1"
         id="path2186-46-49-7" />
      <path
         inkscape:connector-curvature="0"
         style="display:inline;fill:none;stroke:#000000;stroke-width:0.99188358;stroke-linecap:round;stroke-linejoin:miter;stroke-miterlimit:4;stroke-dasharray:none;stroke-opacity:1"
         d="m 601.87401,-158.82636 v -8.33512"
         id="path7326-2-8-3"
         sodipodi:nodetypes="cc" />
    </g>
    <circle
       style="opacity:1;vector-effect:none;fill:none;fill-opacity:1;stroke:#000000;stroke-width:1.47899999;stroke-linecap:butt;stroke-linejoin:round;stroke-miterlimit:4;stroke-dasharray:none;stroke-dashoffset:0;stroke-opacity:1;paint-order:normal;font-variant-east_asian:normal"
       id="path12814"
       cx="82.579391"
       cy="87.184372"
       r="31.938709"
       inkscape:export-xdpi="300.189"
       inkscape:export-ydpi="300.189" />
  </g>
</svg>
